<svg width="36" height="37" viewBox="0 0 36 37" fill="none" xmlns="http://www.w3.org/2000/svg">
<path d="M20.1956 26.5684C20.5863 26.96 21.2207 26.96 21.6114 26.5684L22.3049 25.8734C22.694 25.4834 22.6944 24.8521 22.3056 24.4616L16.8728 19.0045C16.4844 18.6144 16.4844 17.9836 16.8728 17.5935L22.3056 12.1364C22.6944 11.7459 22.694 11.1146 22.3049 10.7245L21.6114 10.0295C21.2207 9.63794 20.5863 9.63794 20.1956 10.0295L12.6497 17.5927C12.2603 17.983 12.2603 18.6149 12.6497 19.0053L20.1956 26.5684Z" fill="#384F78"/>
<rect x="35.334" y="35.757" width="34.8341" height="34.9159" rx="15.5" transform="rotate(-180 35.334 35.757)" stroke="#384F78" stroke-opacity="0.3"/>
</svg>
