<svg width="36" height="37" viewBox="0 0 36 37" fill="none" xmlns="http://www.w3.org/2000/svg">
<path d="M15.6384 26.5684C15.2477 26.96 14.6132 26.96 14.2225 26.5684L13.5291 25.8734C13.14 25.4834 13.1396 24.8521 13.5283 24.4616L18.9611 19.0045C19.3496 18.6144 19.3496 17.9836 18.9611 17.5935L13.5284 12.1364C13.1396 11.7459 13.14 11.1146 13.5291 10.7245L14.2225 10.0295C14.6132 9.63794 15.2477 9.63794 15.6384 10.0295L23.1843 17.5927C23.5737 17.983 23.5737 18.6149 23.1843 19.0053L15.6384 26.5684Z" fill="#384F78"/>
<rect x="0.5" y="-0.5" width="34.8341" height="34.9159" rx="15.5" transform="matrix(1 0 0 -1 0 35.257)" stroke="#384F78" stroke-opacity="0.3"/>
</svg>
