<svg width="300" height="45" viewBox="0 0 300 45" fill="none" xmlns="http://www.w3.org/2000/svg">
<g clip-path="url(#clip0_60_7742)">
<path d="M26.6983 10.9018H47.6177C48.2786 10.9018 48.9125 10.6302 49.3798 10.1467C49.8472 9.66321 50.1097 9.00745 50.1097 8.32369V2.58866C50.1106 1.90364 49.8487 1.24626 49.3814 0.76089C48.9142 0.275523 48.2798 0.0018583 47.6177 0L27.017 0C15.6351 0 5.88405 8.95156 5.05677 20.6952C4.8457 23.7575 5.24561 26.8319 6.23166 29.7274C7.2177 32.623 8.76881 35.2779 10.7886 37.527C12.8084 39.7761 15.2537 41.5715 17.9726 42.8015C20.6914 44.0316 23.6258 44.67 26.5932 44.6771H46.7023C47.5998 44.6716 48.4591 44.3003 49.0938 43.6436C49.7285 42.987 50.0874 42.098 50.0928 41.1695V19.1062C50.0928 18.4234 49.8306 17.7685 49.3639 17.2857C48.8971 16.8029 48.2642 16.5316 47.6041 16.5316H27.9053C25.3319 16.5316 23.0061 18.3661 22.5585 20.9864C22.5182 21.2182 22.4933 21.4526 22.4839 21.6879C22.4486 22.4407 22.5665 23.1928 22.8299 23.8955C23.0933 24.5982 23.4964 25.2359 24.013 25.7673C24.4971 26.2738 25.0737 26.6754 25.7094 26.9489C26.3451 27.2223 27.027 27.362 27.7155 27.3598H39.65V33.9296H26.9933C20.8497 33.9296 15.6419 28.9102 15.5673 22.5578C15.5548 21.0353 15.8332 19.5252 16.3865 18.1144C16.9397 16.7035 17.757 15.4197 18.7913 14.3366C19.8257 13.2535 21.0566 12.3925 22.4136 11.803C23.7705 11.2136 25.2266 10.9073 26.6983 10.9018Z" fill="#1A3DA7"/>
<path d="M82.3547 0H59.6384C58.9781 -6.32288e-07 58.3447 0.271142 57.8775 0.753877C57.4102 1.23661 57.1473 1.89147 57.1464 2.57463V8.22196C57.1473 8.90512 57.4102 9.55998 57.8775 10.0427C58.3447 10.5254 58.9781 10.7966 59.6384 10.7966H82.6429C84.2219 10.7966 85.7363 11.4455 86.8528 12.6007C87.9694 13.7558 88.5966 15.3225 88.5966 16.956C88.5966 18.5896 87.9694 20.1563 86.8528 21.3114C85.7363 22.4666 84.2219 23.1155 82.6429 23.1155H67.5925V18.9414C67.5929 18.6032 67.5289 18.2682 67.404 17.9556C67.2791 17.643 67.0958 17.359 66.8646 17.1198C66.6334 16.8807 66.3589 16.691 66.0568 16.5618C65.7546 16.4326 65.4308 16.3663 65.1039 16.3668H59.6248C59.2977 16.3663 58.9738 16.4326 58.6714 16.5617C58.3691 16.6909 58.0944 16.8805 57.8629 17.1196C57.6315 17.3587 57.4479 17.6427 57.3226 17.9553C57.1973 18.2679 57.1328 18.603 57.1328 18.9414V41.9762C57.1337 42.6594 57.3967 43.3142 57.8639 43.797C58.3312 44.2797 58.9645 44.5508 59.6248 44.5508H65.1039C65.4307 44.5508 65.7543 44.4842 66.0562 44.3549C66.3582 44.2255 66.6325 44.0358 66.8636 43.7968C67.0947 43.5577 67.278 43.2739 67.4031 42.9615C67.5281 42.6491 67.5925 42.3143 67.5925 41.9762V34.1682H82.3547C86.733 34.1682 90.932 32.3688 94.0279 29.1659C97.1238 25.963 98.8631 21.6189 98.8631 17.0893C98.8644 14.8456 98.4384 12.6236 97.6094 10.5503C96.7803 8.47702 95.5645 6.59302 94.0315 5.00599C92.4984 3.41896 90.6781 2.16 88.6745 1.30105C86.671 0.442105 84.5235 -4.25891e-07 82.3547 0Z" fill="#1A3DA7"/>
<path d="M179.474 12.0032C179.474 9.81795 179.474 7.63267 179.474 5.4474C179.474 4.01276 178.718 3.30422 177.28 3.30422C175.764 3.30422 175.083 4.00575 175.1 5.53158C175.141 9.00066 175.164 12.4697 175.246 15.9388C175.28 17.4471 174.683 18.552 173.425 19.229C170.713 20.6882 167.915 20.8004 165.118 19.45C163.698 18.7485 163.043 17.5839 163.043 15.9423C163.043 12.0348 162.989 8.12725 162.979 4.21972C162.958 3.66206 163.075 3.10813 163.319 2.61033C163.563 2.11253 163.925 1.68734 164.372 1.375C165.597 0.518092 167.056 0.092484 168.533 0.16135C169.036 0.204892 169.524 0.364283 169.96 0.627869C170.509 0.919005 170.852 1.50829 170.597 2.08706C170.394 2.54656 169.885 2.8833 169.465 3.20249C169.285 3.33929 168.97 3.27265 168.719 3.32176C167.339 3.60237 166.912 4.15307 166.919 5.58771C166.919 8.59377 166.919 11.5963 166.946 14.5989C166.946 16.0826 167.668 16.7351 169.224 16.7035C170.652 16.7035 171.337 16.002 171.32 14.5989C171.288 11.5402 171.253 8.48036 171.214 5.41934C171.174 2.57813 172.428 0.883928 175.127 0.350763C177.728 -0.164863 180.186 0.0596275 182.217 2.1046C182.505 2.38278 182.734 2.7202 182.89 3.09528C183.045 3.47036 183.123 3.87484 183.118 4.28286C183.146 7.75544 183.184 11.2257 183.234 14.6936C183.234 16.0967 183.295 17.4997 183.356 18.9028C183.393 19.7517 182.986 20.155 182.223 20.2182C181.773 20.2678 181.318 20.2678 180.867 20.2182C179.989 20.0954 179.47 19.6815 179.467 18.752C179.467 16.5071 179.467 14.2622 179.467 12.0208L179.474 12.0032Z" fill="#1A3DA7"/>
<path d="M201.248 7.26473C201.248 9.91652 201.309 12.5683 201.339 15.2201C201.363 17.7597 200.512 19.0435 198.149 19.7801C195.955 20.4816 193.789 20.3939 191.724 19.3065C190.34 18.5769 189.33 17.5527 189.425 15.7673C189.459 15.1009 189.299 14.4204 189.371 13.7609C189.397 13.5576 189.464 13.362 189.567 13.1864C189.669 13.0109 189.806 12.859 189.967 12.7402C190.388 12.4926 190.864 12.3625 191.347 12.3625C191.831 12.3625 192.307 12.4926 192.727 12.7402C192.986 12.9373 193.178 13.2151 193.273 13.5329C193.34 13.7768 193.366 14.0306 193.351 14.2836C193.351 16.2864 194.629 17.1493 196.443 16.3882C197.138 16.1005 197.569 15.6165 197.545 14.8062C197.457 11.5406 197.386 8.27493 197.254 5.01281C197.21 3.96051 196.206 3.33264 194.911 3.4098C193.792 3.47294 193.216 4.03768 193.175 5.11453C193.151 5.81606 193.175 6.71402 192.385 6.86836C191.512 6.98896 190.624 6.92814 189.774 6.68947C189.51 6.62282 189.276 5.93532 189.218 5.50739C189.015 3.90088 188.615 3.48347 187.008 3.40279C186.031 3.3607 185.438 2.91873 185.166 2.0348C184.929 1.26662 185.194 0.691365 185.94 0.47389C187.341 0.0596099 188.84 0.199654 190.147 0.866748C190.425 1.02394 190.736 1.10634 191.052 1.10634C191.369 1.10634 191.68 1.02394 191.958 0.866748C194.463 -0.350411 198.257 0.351121 200.129 2.22421C200.807 2.89769 201.339 3.65534 201.298 4.64099C201.254 5.5109 201.248 6.39483 201.248 7.26473Z" fill="#1A3DA7"/>
<path d="M249.853 11.2247C249.853 9.34455 249.877 7.33115 249.894 5.32126C249.926 4.92841 249.835 4.53528 249.633 4.20076C249.431 3.86624 249.13 3.60834 248.775 3.46571C248.39 3.27479 247.965 3.18996 247.54 3.21946C247.114 3.24897 246.703 3.39179 246.347 3.63407C246.122 3.8075 245.972 4.06594 245.93 4.35314C245.849 5.32126 245.252 5.6615 244.445 5.7071C242.289 5.81935 241.76 5.02311 242.153 3.25174C242.331 2.46587 242.739 1.75629 243.323 1.2208C245.723 -0.810138 250.863 -0.213835 252.823 2.33273C253.31 2.96351 253.593 3.73639 253.633 4.54256C253.633 7.88887 253.528 11.2387 253.454 14.5885C253.454 15.1988 253.43 15.8092 253.413 16.4195C253.405 16.9038 253.276 17.3777 253.038 17.7951C252.8 18.2125 252.462 18.5591 252.057 18.8012C249.443 20.555 245.506 20.3656 243.052 18.3803C242.64 18.0681 242.31 17.6557 242.09 17.1796C241.87 16.7035 241.767 16.1785 241.79 15.6513C241.807 14.5464 241.824 13.438 241.838 12.3331C241.83 11.866 241.924 11.4031 242.111 10.9783C242.299 10.5534 242.576 10.1774 242.923 9.87772C243.563 9.29917 244.331 8.8933 245.159 8.69624C245.987 8.49918 246.85 8.51704 247.669 8.74825C248.687 9.00431 249.141 9.96891 248.843 11.0107C248.776 11.268 248.621 11.491 248.406 11.6372C248.19 11.7834 247.931 11.8426 247.676 11.8034C246.886 11.7789 246.12 11.8034 245.747 12.7014C245.374 13.5993 245.632 15.3391 246.154 15.8583C246.676 16.3774 248.08 16.6826 248.771 16.209C249.193 15.8706 249.497 15.3989 249.636 14.8656C249.792 14.3254 249.694 13.7081 249.724 13.1118C249.755 12.5155 249.792 11.9507 249.853 11.2247Z" fill="#1A3DA7"/>
<path d="M211.635 20.246C210.55 20.1829 209.401 20.246 208.306 20.0216C207.354 19.7958 206.439 19.4246 205.593 18.9202C204.668 18.3975 204.237 17.461 204.213 16.3631C204.095 12.2801 203.989 8.20073 203.874 4.12132C203.842 3.55022 203.961 2.98095 204.218 2.47434C204.475 1.96773 204.86 1.54282 205.332 1.24503C207.722 -0.438646 212.286 -0.193109 214.541 1.69752C214.906 1.99752 215.2 2.37952 215.402 2.81463C215.603 3.24974 215.707 3.72656 215.704 4.20901C215.774 6.04703 215.837 7.8827 215.893 9.71604C215.941 11.3717 215.114 12.0872 213.52 11.8206C212.411 11.6347 212.201 11.3997 212.164 10.2352C212.103 8.74793 212.066 7.26068 211.998 5.77693C211.96 4.95614 211.933 4.09676 211.055 3.67234C210.038 3.20582 209.021 3.10409 208.065 3.75652C207.887 3.90722 207.743 4.09527 207.641 4.30816C207.54 4.52104 207.483 4.75389 207.475 4.99122C207.532 8.31298 207.651 11.6347 207.783 14.9565C207.817 15.9036 208.485 16.4928 209.584 16.5314C210.906 16.5805 212.235 16.5314 213.561 16.5595C213.984 16.5569 214.406 16.5933 214.822 16.6682C215.21 16.7341 215.564 16.9393 215.82 17.2478C216.077 17.5563 216.221 17.9484 216.226 18.3554C216.235 18.7577 216.103 19.1497 215.853 19.4583C215.604 19.7668 215.254 19.9708 214.87 20.0321C213.829 20.1934 212.75 20.1794 211.635 20.246Z" fill="#1A3DA7"/>
<path d="M193.674 44.0882C192.742 44.0882 191.813 44.0882 190.88 44.0882C187.927 44.0636 185.907 42.5238 184.723 39.8334C184.018 38.2374 183.884 36.4336 184.347 34.7452C184.81 33.0567 185.839 31.5939 187.249 30.6187C188.656 29.6717 190.24 29.6682 191.816 29.6261C193.338 29.5875 194.868 29.5594 196.38 29.6261C196.878 29.6506 197.692 29.9172 197.78 30.2434C197.932 30.9998 197.915 31.7821 197.729 32.5304C197.692 32.7233 197.051 32.9057 196.712 32.9128C194.796 32.9443 192.877 32.9128 190.948 32.9128C188.948 32.9338 187.558 34.0247 187.158 35.8592C186.98 36.7512 187.087 37.679 187.465 38.5018C187.842 39.3247 188.469 39.9978 189.25 40.4192C189.651 40.6294 190.092 40.7489 190.541 40.7699C191.898 40.8307 193.254 40.8459 194.61 40.8155C194.807 40.8155 195.024 40.4998 195.18 40.2929C195.247 40.2017 195.18 40.0088 195.18 39.8649C195.142 38.4864 195.142 38.4935 193.793 38.504C192.806 38.504 191.82 38.504 190.83 38.504C189.839 38.504 189.134 37.8024 189.134 36.8519C189.134 35.9013 189.738 35.2418 190.758 35.2243C192.762 35.1892 194.766 35.2243 196.77 35.2068C197.597 35.2068 198.038 35.6522 198.065 36.4906C198.133 38.6443 198.194 40.8015 198.231 42.9587C198.231 43.7339 197.838 44.1197 197.058 44.1057C195.929 44.0812 194.8 44.1057 193.667 44.1057L193.674 44.0882Z" fill="#1A3DA7"/>
<path d="M128.292 43.9227C127.417 43.9227 126.542 43.9227 125.668 43.9227C123.026 43.9823 120.945 42.8704 119.7 40.4957C119.052 39.3514 118.728 38.0413 118.767 36.7155C118.805 35.3897 119.204 34.1019 119.917 32.9998C120.522 31.9343 121.393 31.057 122.439 30.4601C123.485 29.8632 124.667 29.5689 125.861 29.6079C127.839 29.6079 129.814 29.6079 131.787 29.6079C132.96 29.6079 133.242 29.8956 133.242 31.011C133.242 32.5824 133.035 32.8595 131.781 32.849C129.807 32.8315 127.834 32.7648 125.861 32.7648C124.199 32.7648 122.897 33.5155 122.155 35.0694C121.875 35.6691 121.746 36.332 121.78 36.9969C121.813 37.6618 122.007 38.3074 122.345 38.8741C122.683 39.4409 123.153 39.9106 123.712 40.2399C124.272 40.5693 124.902 40.7477 125.545 40.7588C126.817 40.7833 128.088 40.7588 129.356 40.7904C129.956 40.7904 130.177 40.5343 130.167 39.9626C130.153 39.7594 130.153 39.5554 130.167 39.3522C130.245 38.6016 129.95 38.2999 129.204 38.2999C128.078 38.342 126.946 38.2999 125.813 38.2999C124.681 38.2999 124.05 37.7808 124.064 36.7881C124.064 35.7043 124.644 35.1606 125.823 35.1535C127.827 35.1535 129.831 35.1535 131.835 35.1535C132.832 35.1535 133.127 35.4236 133.12 36.4338C133.12 38.5595 133.066 40.6886 133.038 42.8143C133.038 43.579 132.652 43.9262 131.923 43.9192C130.709 43.9192 129.495 43.9192 128.282 43.9192L128.292 43.9227Z" fill="#1A3DA7"/>
<path d="M205.039 38.6822C205.039 38.6822 205.039 36.1778 205.039 34.9255C205.076 31.9756 206.988 29.7868 209.836 29.664C212.396 29.5413 214.966 29.6079 217.529 29.6079C218.285 29.6079 218.672 30.0814 218.695 30.8216C218.794 33.9364 218.865 37.0477 218.96 40.1625C218.987 41.092 219.065 42.0215 219.096 42.9686C219.116 43.6701 218.862 44.1331 218.078 44.1577C216.654 44.1963 216.227 43.9998 216.129 43.1054C216.084 42.583 216.066 42.0584 216.075 41.534C216.075 41.0359 215.881 40.7868 215.369 40.7903C213.168 40.8044 210.969 40.8044 208.771 40.7903C208.256 40.7903 208.053 41.0218 208.117 41.541C208.165 41.9163 208.215 42.2916 208.236 42.6669C208.287 43.6842 207.965 44.1016 207.124 44.1472C205.686 44.2314 205.272 43.9648 205.245 42.8248C205.211 41.4568 205.035 38.9663 205.035 38.9663L205.039 38.6822ZM212.582 32.9262H211.318C210.867 32.9262 210.416 32.9051 209.962 32.9262C209.447 32.9251 208.953 33.1321 208.584 33.5031C208.215 33.8741 208.002 34.3796 207.988 34.9115C207.948 35.5183 207.988 36.1287 208.022 36.7355C208.022 37.2581 208.327 37.4195 208.799 37.4195C210.93 37.4195 213.065 37.4265 215.203 37.4405C215.644 37.4405 215.905 37.3072 215.881 36.8021C215.854 35.7498 215.841 34.6975 215.817 33.6452C215.817 33.105 215.539 32.877 215.01 32.8946C214.193 32.9472 213.389 32.9297 212.572 32.9262H212.582Z" fill="#1A3DA7"/>
<path d="M145.273 11.1789C145.273 12.9854 145.273 14.7883 145.273 16.5947C145.273 17.833 144.595 18.6572 143.652 19.2851C141.157 20.9302 137.136 20.8145 134.735 19.0536C134.347 18.8124 134.032 18.4641 133.825 18.0477C133.617 17.6313 133.527 17.1634 133.562 16.6965C133.616 15.8266 133.623 14.9426 133.596 14.0762C133.555 13.783 133.625 13.4846 133.792 13.2438C133.959 13.003 134.209 12.8386 134.491 12.7854C134.977 12.6386 135.481 12.5688 135.986 12.5785C137.031 12.6416 137.36 13.066 137.36 14.1429C137.36 14.3183 137.36 14.4937 137.36 14.6655C137.39 16.5491 138.675 17.4717 140.411 16.8122C140.743 16.7258 141.035 16.523 141.239 16.2383C141.442 15.9537 141.544 15.6048 141.527 15.2513C141.527 13.2134 141.55 11.1719 141.527 9.13043C141.527 7.95537 140.743 7.34153 139.34 7.21525C138.4 7.16026 137.467 7.02535 136.549 6.81187C134.515 6.26818 133.762 5.21588 133.742 3.05516C133.742 2.64476 133.789 2.23437 133.742 1.83099C133.674 1.10139 133.864 0.596288 134.6 0.354259C135.617 0.0245387 136.929 0.150815 137.292 0.750625C137.438 1.0623 137.504 1.40804 137.482 1.75382C137.512 3.46556 137.922 3.93558 139.601 3.92155C140.986 3.90801 142.353 4.24774 143.581 4.91072C144.761 5.53859 145.256 6.53827 145.276 7.92029C145.276 8.99714 145.276 10.074 145.276 11.1544C145.232 11.1684 145.317 11.1789 145.273 11.1789Z" fill="#1A3DA7"/>
<path d="M172.923 32.9335C171.655 32.9335 170.387 32.9335 169.119 32.9335C168.333 32.9335 167.967 32.5827 167.97 31.7865C167.97 31.4077 167.95 31.0253 167.97 30.65C167.963 30.5245 167.983 30.3989 168.027 30.2818C168.071 30.1646 168.139 30.0586 168.226 29.9709C168.313 29.8831 168.417 29.8157 168.531 29.7731C168.646 29.7305 168.768 29.7138 168.889 29.724C170.833 29.7053 172.773 29.6924 174.71 29.6854C175.555 29.6854 176.406 29.6538 177.24 29.6854C181.403 29.8889 183.39 35.2977 180.969 38.6054C180.879 38.7537 180.772 38.8903 180.65 39.0123C180.132 39.4718 180.105 39.9138 180.508 40.5136C181.004 41.292 181.457 42.0989 181.864 42.9304C182.336 43.8459 182.203 44.0704 181.22 44.0774C180.881 44.0774 180.542 44.0458 180.203 44.0774C179.311 44.13 178.603 43.7687 178.325 42.9023C177.714 40.9906 176.439 40.4715 174.629 40.71C173.672 40.7854 172.711 40.7854 171.754 40.71C171.177 40.71 170.91 40.917 170.994 41.5378C171.032 41.8254 170.994 42.1236 171.025 42.4112C171.194 44.2177 170.157 44.2843 168.675 43.9195C168.428 43.8599 168.14 43.3057 168.126 42.9689C168.041 40.7556 168.007 38.5423 168 36.3289C168 35.452 168.39 35.203 169.536 35.196C170.587 35.196 171.004 35.4555 170.974 36.3289C170.94 37.2585 171.313 37.4654 172.13 37.4409C173.68 37.3953 175.232 37.4409 176.782 37.4198C178.182 37.4198 178.999 36.5955 179.009 35.2486C179.009 33.9788 178.118 33.0317 176.819 32.9475H176.65H172.92L172.923 32.9335Z" fill="#1A3DA7"/>
<path d="M231.55 38.6823C231.55 38.6823 231.574 36.3672 231.55 35.2097C231.513 33.754 231.411 32.2984 231.381 30.8427C231.357 29.7623 231.696 29.5343 233.167 29.5098C233.991 29.5098 234.327 29.8605 234.364 30.8251C234.507 34.6391 234.648 38.4531 234.788 42.2671C234.815 42.9687 234.652 43.6071 233.971 43.9543C233.58 44.1235 233.15 44.1714 232.734 44.0924C232.317 44.0133 231.932 43.8105 231.625 43.5089C230.204 41.969 228.807 40.4046 227.404 38.8472C226.232 37.5024 224.992 36.2237 223.688 35.0168C223.688 35.3395 223.688 35.6622 223.688 35.9849C223.793 38.2263 223.918 40.4642 224.003 42.7056C224.047 43.8245 223.83 44.0771 222.986 44.1087C221.443 44.1753 221.165 44.021 221.097 42.8319C220.972 40.6501 220.901 38.4683 220.812 36.2831C220.751 34.7116 220.707 33.1262 220.65 31.5653C220.619 30.7445 220.796 30.0043 221.616 29.7132C222.437 29.4221 223.22 29.4747 223.864 30.2113C226.233 32.9169 228.6 35.6178 230.967 38.314C231.109 38.4789 231.431 38.6648 231.53 38.8682C231.547 38.7314 231.55 38.6823 231.55 38.6823Z" fill="#1A3DA7"/>
<path d="M248.681 29.6503C249.668 29.6503 250.658 29.7064 251.641 29.6503C253.702 29.545 255.37 30.4219 256.31 32.2038C257.639 34.7574 257.608 38.9175 254.275 40.5451C253.873 40.7524 253.433 40.8718 252.984 40.8958C251.326 40.9379 249.664 40.9449 248.006 40.8958C246.748 40.8678 246.616 40.9765 246.796 42.2323C246.835 42.3735 246.847 42.5211 246.833 42.6672C246.711 43.1758 246.681 44.0492 246.392 44.165C245.813 44.3965 244.86 44.4035 244.433 44.165C244.305 44.0664 244.198 43.9423 244.118 43.8001C244.037 43.6579 243.985 43.5005 243.965 43.3372C243.829 41.0712 243.725 38.8018 243.653 36.5288C243.622 35.5572 243.846 35.4519 245.28 35.3327C246.07 35.266 246.545 35.6519 246.515 36.385C246.47 37.4373 246.972 37.56 247.81 37.532C249.19 37.4829 250.573 37.532 251.953 37.532C253.502 37.532 254.204 36.869 254.18 35.3713C254.154 34.7243 253.882 34.1143 253.422 33.6741C252.963 33.234 252.355 32.9993 251.729 33.0211C249.505 33.0632 247.279 33.0924 245.05 33.1088C243.694 33.1088 243.517 32.9054 243.466 31.4742C243.466 31.2147 243.419 30.9516 243.429 30.6885C243.456 29.9133 243.921 29.6362 244.606 29.6362C245.962 29.6362 247.318 29.6362 248.674 29.6573L248.681 29.6503Z" fill="#1A3DA7"/>
<path d="M158.833 43.9758C154.9 44.3265 151.713 40.9206 151.736 36.8026C151.793 34.8966 152.565 33.0884 153.889 31.7611C155.212 30.4337 156.983 29.6914 158.826 29.6914C160.669 29.6914 162.44 30.4337 163.763 31.7611C165.087 33.0884 165.859 34.8966 165.916 36.8026C165.983 40.2857 163.335 44.323 158.833 43.9758ZM158.792 40.7838C161.233 40.8118 162.884 39.272 162.901 36.9499C162.911 36.4169 162.817 35.8874 162.624 35.3929C162.432 34.8985 162.145 34.4491 161.781 34.0717C161.418 33.6943 160.984 33.3965 160.507 33.1962C160.029 32.9958 159.517 32.897 159.002 32.9056C156.415 32.874 154.747 34.3893 154.737 36.764C154.727 39.1387 156.32 40.7592 158.792 40.7838Z" fill="#1A3DA7"/>
<path d="M130.672 5.72098C130.672 9.27775 130.672 12.8345 130.672 16.3913C130.683 16.9838 130.529 17.5671 130.228 18.0715C129.928 18.576 129.493 18.9802 128.976 19.236C125.942 20.8741 122.829 21.0249 119.717 19.45C119.274 19.2451 118.896 18.9159 118.625 18.4999C118.355 18.0839 118.202 17.5976 118.184 17.0963C118.154 16.5947 118.161 16.044 118.184 15.56C118.215 14.8199 118.822 14.4095 119.541 14.2902C120.67 14.1113 121.429 14.441 121.843 15.2969C122.612 16.8789 124.111 17.4401 125.718 16.7561C126.045 16.6553 126.33 16.4462 126.531 16.1609C126.731 15.8757 126.835 15.5302 126.827 15.1776C126.868 11.9471 126.942 8.71301 126.993 5.47895C127.013 4.07588 126.966 2.67282 127.054 1.2908C127.096 1.09197 127.182 0.906001 127.306 0.747683C127.429 0.589364 127.587 0.463058 127.766 0.378804C128.303 0.198673 128.87 0.136546 129.431 0.196406C130.611 0.305143 130.662 0.652402 130.658 1.86956C130.658 3.15337 130.658 4.43717 130.658 5.72799L130.672 5.72098Z" fill="#1A3DA7"/>
<path d="M271.652 40.9803C270.804 40.9803 269.956 40.9803 269.112 40.9803C268.454 40.9803 268.166 41.289 268.383 41.9835C268.466 42.1693 268.506 42.372 268.502 42.5763C268.414 43.1235 268.421 43.9794 268.115 44.1302C267.614 44.3898 266.864 44.3126 266.274 44.1512C266.003 44.0776 265.725 43.4848 265.698 43.0989C265.539 40.9487 265.454 38.795 265.359 36.6448C265.328 35.9784 265.43 35.4207 266.254 35.347C267.369 35.2488 268.159 35.582 268.18 36.3993C268.207 37.4516 268.661 37.5673 269.516 37.5393C270.872 37.5007 272.228 37.6235 273.561 37.6375C274.893 37.6515 275.615 37.0728 275.713 35.8451C275.839 34.2561 275.171 33.2038 273.788 33.1021C272.164 32.9828 270.533 33.0214 268.902 33.0109C268.027 33.0109 267.156 33.0425 266.281 33.046C265.603 33.046 265.264 32.6601 265.206 31.9656C265.206 31.9375 265.206 31.906 265.206 31.8779C265.006 29.7067 265.006 29.6891 267.102 29.6505C269.197 29.612 271.218 29.6751 273.272 29.5804C274.633 29.5662 275.958 30.0313 277.029 30.8993C277.727 31.4114 278.209 32.5479 278.358 33.4774C278.593 34.8182 278.581 36.1929 278.321 37.5288C277.85 39.6579 276.076 40.9101 273.95 40.9768C273.191 40.9978 272.428 40.9768 271.669 40.9768L271.652 40.9803Z" fill="#1A3DA7"/>
<path d="M144.858 43.9402C143.871 43.9402 142.885 43.9402 141.898 43.9402C140.318 43.9327 138.795 43.3328 137.61 42.2517C136.426 41.1706 135.66 39.6818 135.456 38.0613C134.985 34.3923 136.758 31.1793 140.047 30.0498C141.088 29.6991 142.261 29.6991 143.38 29.6394C145.014 29.5728 146.651 29.6114 148.286 29.6394C149.387 29.6394 149.669 29.9902 149.669 31.3196C149.669 32.649 149.421 32.9051 148.313 32.9086C146.251 32.9086 144.193 32.9086 142.135 32.9086C141.626 32.8966 141.119 32.9928 140.647 33.1912C140.175 33.3895 139.748 33.6858 139.39 34.0619C139.033 34.4379 138.755 34.8856 138.571 35.3774C138.388 35.8692 138.304 36.3946 138.324 36.9213C138.346 37.9541 138.758 38.937 139.472 39.6586C140.187 40.3802 141.147 40.7828 142.145 40.7798C144.18 40.8043 146.214 40.7798 148.248 40.7798C149.347 40.7798 149.625 41.0604 149.621 42.1478C149.621 43.7473 149.455 43.9577 148.265 43.9577H144.875L144.858 43.9402Z" fill="#1A3DA7"/>
<path d="M148.162 11.4352C148.162 9.33061 148.162 7.22601 148.162 5.14246C148.142 2.39596 149.006 0.98237 151.634 0.540404C153.946 0.151054 156.34 0.189638 158.697 0.189638C158.904 0.18128 159.11 0.218112 159.303 0.297743C159.495 0.377374 159.67 0.498022 159.814 0.651848C159.959 0.805674 160.07 0.989237 160.142 1.19061C160.213 1.39198 160.243 1.60666 160.229 1.8207C160.161 2.73269 159.629 3.20272 158.534 3.22377C157.211 3.25884 155.886 3.22377 154.56 3.25534C154.166 3.25478 153.774 3.30068 153.39 3.39214C152.4 3.64118 152.034 4.13225 152.034 5.19508C152.034 9.4791 152.034 13.762 152.034 18.0436C152.034 20.1097 150.641 21.0497 148.813 20.1307C148.627 19.9949 148.473 19.8174 148.363 19.6115C148.253 19.4057 148.189 19.1767 148.176 18.9416C148.118 16.4406 148.149 13.9327 148.149 11.4282L148.162 11.4352Z" fill="#1A3DA7"/>
<path d="M160.315 15.7215C160.315 16.7107 160.315 17.6998 160.315 18.6925C160.315 19.7728 160 20.1482 158.959 20.3411C157.484 20.6217 156.64 19.9202 156.633 18.4013C156.633 16.9422 156.633 15.4853 156.633 14.0308C156.633 12.1542 156.175 11.5754 154.388 11.1756C154.006 11.1183 153.646 10.9546 153.347 10.702C152.544 9.85317 152.934 8.59743 154.093 8.37294C156.918 7.8082 160.562 9.59711 160.308 13.2837C160.25 14.0939 160.308 14.9112 160.308 15.739L160.315 15.7215Z" fill="#1A3DA7"/>
<path d="M199.953 33.0632C199.953 32.5967 199.953 31.7513 199.953 30.906C199.953 29.9414 200.231 29.6362 201.136 29.6046C202.387 29.559 202.832 29.8502 202.879 30.8288C202.944 31.9933 202.981 33.1579 203.008 34.3365C203.079 37.1426 203.15 39.9277 203.201 42.7268C203.218 43.8422 202.988 44.0948 202.045 44.1299C200.58 44.1649 200.309 43.9896 200.265 42.818C200.143 39.6751 200.055 36.5568 199.953 33.0632Z" fill="#1A3DA7"/>
<path d="M262.158 31.6392L262.497 39.0439C262.562 40.468 262.66 41.8921 262.691 43.3162C262.691 44.0178 262.318 44.3685 261.623 44.3966C260.266 44.4352 259.822 44.0844 259.761 42.7445C259.583 38.9305 259.422 35.1176 259.28 31.306C259.229 29.9029 259.619 29.496 260.819 29.5065C261.755 29.5065 262.257 30.1835 262.219 31.3761C262.215 31.4631 262.206 31.5498 262.192 31.6357L262.158 31.6392Z" fill="#1A3DA7"/>
<path d="M145.046 35.196C145.975 35.196 146.904 35.196 147.833 35.196C148.901 35.2205 149.606 35.8659 149.613 36.7814C149.62 37.6969 148.857 38.4546 147.816 38.4546C145.901 38.4546 143.988 38.4336 142.076 38.3669C141.059 38.3353 140.496 37.7075 140.527 36.806C140.56 35.8484 141.174 35.2275 142.174 35.1995C143.175 35.1714 144.087 35.196 145.046 35.196Z" fill="#1A3DA7"/>
<path d="M290.17 43.9402C289.183 43.9402 288.197 43.9402 287.206 43.9402C285.627 43.9319 284.104 43.3318 282.92 42.2508C281.735 41.1699 280.97 39.6815 280.765 38.0613C280.293 34.3923 282.066 31.1793 285.355 30.0498C286.396 29.6991 287.573 29.6991 288.692 29.6394C290.322 29.5728 291.96 29.6114 293.594 29.6394C294.699 29.6394 294.978 29.9902 294.981 31.3196C294.984 32.649 294.733 32.9051 293.625 32.9086C291.567 32.9086 289.509 32.9086 287.451 32.9086C286.941 32.8962 286.434 32.992 285.962 33.1901C285.489 33.3882 285.061 33.6845 284.704 34.0605C284.346 34.4366 284.067 34.8845 283.883 35.3765C283.7 35.8686 283.616 36.3943 283.636 36.9213C283.658 37.9539 284.071 38.9362 284.785 39.6576C285.5 40.379 286.459 40.7819 287.457 40.7798C289.492 40.8043 291.526 40.7798 293.56 40.7798C294.659 40.7798 294.937 41.0604 294.933 42.1478C294.933 43.7473 294.771 43.9577 293.577 43.9577H290.187L290.17 43.9402Z" fill="#1A3DA7"/>
<path d="M290.357 35.196C291.286 35.196 292.215 35.196 293.144 35.196C294.212 35.2205 294.918 35.8659 294.924 36.7814C294.931 37.6969 294.168 38.4546 293.127 38.4546C291.215 38.4546 289.3 38.4336 287.387 38.3669C286.37 38.3353 285.807 37.7075 285.841 36.806C285.872 35.8484 286.485 35.2275 287.486 35.1995C288.486 35.1714 289.401 35.196 290.357 35.196Z" fill="#1A3DA7"/>
<path d="M120.317 11.2526C118.795 11.2526 118.073 9.93375 118.666 8.4465C119.49 6.3419 123.026 4.8792 125.013 5.81575C125.323 5.93099 125.584 6.15744 125.747 6.45407C125.91 6.7507 125.964 7.0979 125.901 7.43278C125.886 7.59487 125.838 7.75197 125.762 7.89455C125.686 8.03714 125.583 8.16224 125.458 8.26228C125.334 8.36231 125.191 8.43519 125.039 8.47651C124.887 8.51782 124.728 8.52671 124.572 8.50262C123.43 8.43948 122.758 9.10594 122.26 10.0179C121.795 10.8457 121.168 11.3158 120.317 11.2526Z" fill="#1A3DA7"/>
<path d="M293.306 1.75365C292.806 1.23708 292.217 0.820837 291.57 0.52597C290.851 0.195279 290.072 0.0244141 289.285 0.0244141C288.498 0.0244141 287.719 0.195279 287 0.52597C285.992 0.989364 285.136 1.74475 284.534 2.70086C283.932 3.65696 283.611 4.77287 283.609 5.91374V18.2397C283.609 18.6118 283.752 18.9687 284.007 19.2318C284.261 19.4949 284.606 19.6427 284.966 19.6427H285.983C286.342 19.6427 286.687 19.4949 286.942 19.2318C287.196 18.9687 287.339 18.6118 287.339 18.2397V4.60538C287.339 4.23327 287.482 3.87639 287.736 3.61327C287.99 3.35014 288.335 3.20232 288.695 3.20232H289.916C290.275 3.20232 290.62 3.35014 290.875 3.61327C291.129 3.87639 291.272 4.23327 291.272 4.60538V18.2397C291.272 18.6118 291.415 18.9687 291.669 19.2318C291.923 19.4949 292.268 19.6427 292.628 19.6427H293.645C294.005 19.6427 294.35 19.4949 294.604 19.2318C294.859 18.9687 295.001 18.6118 295.001 18.2397V5.92076C294.999 5.14479 294.847 4.37707 294.557 3.66187C294.266 2.94666 293.841 2.29812 293.306 1.75365Z" fill="#1A3DA7"/>
<path d="M266.457 1.75347C265.953 1.23834 265.361 0.824441 264.711 0.532806C263.991 0.202115 263.213 0.03125 262.426 0.03125C261.638 0.03125 260.86 0.202115 260.14 0.532806C259.133 0.9962 258.276 1.75159 257.675 2.70769C257.073 3.6638 256.752 4.7797 256.75 5.92058V18.2395C256.75 18.6116 256.893 18.9685 257.147 19.2316C257.402 19.4947 257.747 19.6426 258.106 19.6426H259.123C259.483 19.6426 259.828 19.4947 260.082 19.2316C260.337 18.9685 260.48 18.6116 260.48 18.2395V4.6052C260.48 4.23309 260.622 3.87621 260.877 3.61309C261.131 3.34996 261.476 3.20214 261.836 3.20214H263.056C263.416 3.20214 263.761 3.34996 264.015 3.61309C264.27 3.87621 264.413 4.23309 264.413 4.6052V18.2395C264.413 18.6116 264.555 18.9685 264.81 19.2316C265.064 19.4947 265.409 19.6426 265.769 19.6426H266.786C267.146 19.6426 267.491 19.4947 267.745 19.2316C267.999 18.9685 268.142 18.6116 268.142 18.2395V5.92058C268.141 5.14535 267.991 4.37807 267.702 3.66291C267.413 2.94774 266.99 2.29881 266.457 1.75347Z" fill="#1A3DA7"/>
<path d="M228.308 1.75365C227.808 1.23708 227.219 0.820837 226.572 0.52597C225.853 0.195279 225.074 0.0244141 224.287 0.0244141C223.5 0.0244141 222.721 0.195279 222.002 0.52597C220.994 0.989364 220.138 1.74475 219.536 2.70086C218.934 3.65696 218.613 4.77287 218.611 5.91374V18.2397C218.611 18.6118 218.754 18.9687 219.009 19.2318C219.263 19.4949 219.608 19.6427 219.968 19.6427H220.985C221.344 19.6427 221.689 19.4949 221.944 19.2318C222.198 18.9687 222.341 18.6118 222.341 18.2397V4.60538C222.341 4.23327 222.484 3.87639 222.738 3.61327C222.992 3.35014 223.337 3.20232 223.697 3.20232H224.918C225.277 3.20232 225.622 3.35014 225.877 3.61327C226.131 3.87639 226.274 4.23327 226.274 4.60538V18.2397C226.274 18.6118 226.417 18.9687 226.671 19.2318C226.925 19.4949 227.27 19.6427 227.63 19.6427H228.647C229.007 19.6427 229.352 19.4949 229.606 19.2318C229.861 18.9687 230.003 18.6118 230.003 18.2397V5.92076C230.001 5.14479 229.849 4.37707 229.558 3.66187C229.267 2.94666 228.843 2.29812 228.308 1.75365Z" fill="#1A3DA7"/>
<path d="M278.952 12.6766H279.969C280.329 12.6766 280.674 12.5288 280.928 12.2657C281.182 12.0026 281.325 11.6457 281.325 11.2736V5.78408C281.324 4.82678 281.094 3.88466 280.655 3.0421C280.216 2.19955 279.581 1.48287 278.808 0.95628C278.036 0.429687 277.149 0.109618 276.227 0.0247458C275.305 -0.0601267 274.378 0.0928476 273.527 0.469966C272.522 0.916539 271.666 1.65772 271.063 2.60206C270.461 3.5464 270.139 4.65257 270.137 5.78408V16.4018C270.137 17.3321 270.494 18.2243 271.13 18.8821C271.766 19.5399 272.628 19.9094 273.527 19.9094H279.969C280.329 19.9094 280.674 19.7616 280.928 19.4985C281.182 19.2354 281.325 18.8785 281.325 18.5064V17.4541C281.325 17.082 281.182 16.7251 280.928 16.462C280.674 16.1988 280.329 16.051 279.969 16.051H275.222C274.863 16.051 274.518 15.9032 274.263 15.6401C274.009 15.3769 273.866 15.0201 273.866 14.6479C273.866 13.0976 273.866 10.8141 273.866 10.7895V5.66832C273.866 5.20318 274.045 4.75708 274.363 4.42818C274.681 4.09927 275.112 3.91449 275.562 3.91449H275.901C276.35 3.91449 276.781 4.09927 277.099 4.42818C277.417 4.75708 277.596 5.20318 277.596 5.66832V11.2806C277.598 11.6515 277.741 12.0066 277.995 12.2682C278.25 12.5298 278.593 12.6766 278.952 12.6766Z" fill="#1A3DA7"/>
</g>
<defs>
<clipPath id="clip0_60_7742">
<rect width="300" height="44.6806" fill="white"/>
</clipPath>
</defs>
</svg>
